<svg width="100" height="100" viewBox="0 0 150 150" fill="none" xmlns="http://www.w3.org/2000/svg">
<g clip-path="url(#clip0_139_9)">
<path fill-rule="evenodd" clip-rule="evenodd" d="M75 150C33.5779 150 0 116.422 0 75C0 33.5779 33.5779 0 75 0C116.422 0 150 33.5779 150 75C150 116.422 116.422 150 75 150ZM61.0169 139.699C58.1003 137.371 55.6001 134.565 53.6228 131.4C42.7809 114.234 46.9213 96.5029 61.3191 81.2316C61.7515 80.7463 62.1993 80.2831 62.6581 79.8463C65.6828 76.8235 68.9229 74.0243 72.3529 71.4706C91.9809 56.7485 99.1698 39.5471 88.9169 23.3118C85.2993 17.5809 80.1088 14.1154 73.5993 12.4765C67.6919 10.9897 61.2353 11.1154 55.1184 12.2404C54.0782 12.4307 53.0452 12.658 52.0213 12.9221C26.8015 22.2618 8.82353 46.5309 8.82353 75C8.82353 106.751 31.1846 133.279 61.0169 139.699ZM88.9853 10.3015C91.9019 12.6292 94.4021 15.4353 96.3794 18.6C109.624 39.5713 100.509 61.3853 77.6493 78.5294C58.0213 93.2515 50.8324 110.453 61.0853 126.688C64.7029 132.419 69.8934 135.885 76.4029 137.524C82.3103 139.01 88.7669 138.885 94.8838 137.76C95.924 137.569 96.957 137.342 97.9809 137.078C123.199 127.738 141.176 103.469 141.176 75C141.176 43.2485 118.818 16.7206 88.9853 10.3015Z" fill="#BBB9B9"/>
<g clip-path="url(#clip1_139_9)">
<path d="M67.3438 37.4666C66.4149 33.285 64.0757 30.384 60.3328 28.7601L47.6382 23.2526C47.1282 23.0314 46.7406 23.2141 46.482 23.8101L20.1591 84.4836C19.9006 85.0795 20.032 85.4875 20.542 85.7087L24.4669 87.4115C24.9815 87.6348 25.3646 87.4501 25.6231 86.8541L37.2962 59.9479C37.3992 59.7106 37.5566 59.6347 37.7615 59.7236L45.6842 63.1608C49.377 64.7629 53.0252 64.4971 56.6336 62.353C60.2442 60.216 63.158 56.5925 65.3728 51.4876C67.6149 46.3194 68.2705 41.6409 67.3438 37.4666ZM54.0074 56.8209C51.6442 58.3398 49.3083 58.5985 46.9998 57.5969L40.0014 54.5607C39.7965 54.4718 39.7444 54.305 39.8473 54.0677L49.7816 31.1695C49.8846 30.9321 50.0396 30.8616 50.2445 30.9505L57.243 33.9867C59.5515 34.9882 60.9539 36.8812 61.4478 39.671C61.9463 42.4627 61.4165 45.6417 59.8722 49.2014C58.3255 52.7664 56.3729 55.3093 54.0074 56.8209ZM88.1324 110.69C89.228 114.624 91.6746 117.415 95.4675 119.061C99.265 120.708 103.004 120.582 106.687 118.69C110.377 116.794 113.272 113.413 115.386 108.54C116.572 105.808 117.173 103.3 117.191 101.014C117.209 98.7281 116.816 96.4399 116.009 94.1472C115.205 91.8618 113.832 88.7409 111.889 84.7898C110.454 81.7737 109.424 79.3842 108.782 77.6208C108.143 75.8645 107.834 74.1576 107.853 72.5053C107.865 70.8562 108.271 69.1088 109.07 67.2683C110.411 64.1779 112.116 62.0793 114.185 60.9653C116.249 59.8493 118.311 59.7351 120.365 60.626C122.618 61.6038 124.007 63.3531 124.532 65.874C125.051 68.3928 124.627 71.229 123.261 74.3774L122.256 76.6926C121.998 77.2885 122.129 77.6964 122.639 77.9177L126.487 79.5869C127.001 79.8101 127.384 79.6254 127.643 79.0295L128.608 76.804C130.722 71.9311 131.25 67.5229 130.191 63.5668C129.134 59.618 126.658 56.7954 122.76 55.1044C119.067 53.5024 115.481 53.5506 112.001 55.2492C108.519 56.953 105.777 60.1185 103.766 64.754C102.477 67.7231 101.83 70.5126 101.823 73.1226C101.823 75.7294 102.219 78.1448 103.024 80.3676C103.827 82.5831 105.034 85.3501 106.646 88.6562C108.235 92.0274 109.337 94.4986 109.961 96.0788C110.592 97.6558 110.935 99.3212 110.996 101.077C111.056 102.833 110.647 104.723 109.771 106.743C108.458 109.77 106.681 111.894 104.448 113.113C102.211 114.329 100.017 114.474 97.863 113.539C95.7093 112.605 94.3567 110.871 93.8099 108.341C93.2631 105.81 93.6738 102.968 95.0397 99.8193L95.8519 97.9472C96.1082 97.3565 95.9836 96.9453 95.4691 96.7221L91.6261 95.0548C91.1115 94.8316 90.7261 95.0215 90.4699 95.6122L89.541 97.7533C87.5047 102.447 87.0367 106.756 88.1324 110.69Z" fill="#BBB9B9"/>
</g>
</g>
<defs>
<clipPath id="clip0_139_9">
<rect width="150" height="150" fill="white"/>
</clipPath>
<clipPath id="clip1_139_9">
<rect width="96.9345" height="69.535" fill="white" transform="translate(47.1387 22.2965) rotate(23.4533)"/>
</clipPath>
</defs>
</svg>
