<svg width="130" height="130" viewBox="0 0 130 130" fill="none" xmlns="http://www.w3.org/2000/svg">
<g clip-path="url(#clip0_169_17)">
<path d="M67.1195 116.66C66.5491 115.925 65.9786 116.366 65.9786 115.925C62.5557 116.807 56.1378 114.455 53.428 114.749C53.9985 113.867 52.5723 114.014 52.5723 113.426C52.0018 114.308 51.4313 113.426 50.5756 113.72C49.7199 111.514 46.297 113.132 45.8691 110.338C43.8725 110.338 43.1594 109.162 41.1627 107.986C41.3053 107.839 41.4479 107.839 41.5905 107.692C40.5922 107.545 40.5922 106.957 39.7365 106.957L40.0217 106.369C38.4529 106.074 37.8824 103.575 35.6005 102.693C34.8874 102.546 33.3186 100.047 32.4628 99.4585C32.035 99.1644 31.3219 99.1644 32.3202 99.0174C32.1776 98.8704 32.1776 98.5764 32.3202 98.4293C31.3219 98.1353 31.1793 97.2532 29.8957 96.8121C29.7531 96.371 30.1809 96.077 29.8957 95.7829C29.6104 95.6359 29.1826 95.93 28.8973 95.7829C28.7547 98.4293 31.6071 98.7234 32.4628 100.929C32.1776 100.635 31.7497 99.7525 31.4645 100.341C31.3219 100.782 32.6055 102.399 32.6055 101.517C32.1776 101.811 32.035 101.076 32.3202 100.929C32.7481 101.664 33.6038 101.517 33.6038 102.105C33.1759 102.546 32.6055 101.664 32.7481 102.399C34.0317 103.134 33.889 103.869 34.6021 104.898C34.0317 104.163 33.889 105.486 33.3186 104.898C33.1759 102.693 30.7514 103.134 30.7514 100.929C30.4662 100.194 30.1809 100.782 29.7531 100.488C30.3235 99.8995 28.0416 97.8412 28.0416 98.5764C27.3285 97.6942 27.7564 97.4002 27.6137 96.8121C27.0433 96.6651 27.4711 97.4002 27.0433 96.9591C27.6137 95.93 26.3302 94.6068 25.4744 93.5776L26.0449 93.2836C25.0466 92.6955 24.904 91.5193 24.1909 90.1961C23.3351 91.5193 25.9023 94.4597 25.4744 95.0478C25.4744 95.1949 26.4728 96.371 26.758 96.9591C27.899 99.0174 28.7547 101.517 30.3235 102.693C30.0383 102.546 30.1809 101.664 30.6088 102.105C30.6088 102.546 30.3235 102.987 30.3235 103.428L32.7481 105.927C30.894 104.751 29.04 103.575 27.7564 101.811C28.4695 101.664 29.1826 102.987 29.7531 102.84C28.3268 101.664 28.7547 101.223 28.1842 99.7525C27.6138 99.3115 28.3268 100.341 27.7564 100.488C25.9023 98.7234 24.4761 97.6942 23.6204 96.077C23.763 95.93 23.9056 95.7829 23.9056 95.4889L23.6204 95.1949C24.4761 96.077 24.7613 96.8121 25.7597 96.9591C25.3318 96.5181 25.7597 96.371 25.1892 95.93C24.904 95.3419 24.4761 96.224 24.1909 95.7829C24.4761 95.3419 24.1909 94.7538 24.1909 94.3127C23.9056 94.3127 23.6204 94.3127 23.4778 93.8716C23.1925 93.7246 23.0499 93.8717 22.9073 94.1657C22.7647 94.0187 22.7647 93.7246 22.622 93.5776V93.4306C22.4794 93.2836 22.3368 92.9895 22.1942 92.8425C21.0532 89.755 20.3401 85.6384 18.7713 82.992C19.1992 81.2278 18.4861 77.6992 18.0582 76.8171C18.4861 76.082 18.2008 72.7005 17.9156 72.1124C17.2025 72.4065 18.0582 74.0237 17.3451 74.4648C16.632 71.2303 17.773 67.5547 17.4877 64.6143C17.773 64.6143 18.0582 64.6143 18.0582 64.4673C17.6303 64.0262 18.3434 63.1441 18.2008 62.1149C18.7713 60.7917 16.9172 64.0262 16.9172 65.3494C16.7746 65.6435 16.2041 65.3494 16.3468 66.0845C16.3468 67.1137 16.632 69.172 16.0615 70.6422C15.7763 70.6422 15.7763 70.3482 15.491 70.4952C15.3484 71.2303 15.2058 72.1124 15.0632 72.8475C14.9206 72.5535 14.7779 72.1124 14.7779 71.9654C14.0648 68.2899 14.7779 64.0262 14.4927 60.9388C15.0632 60.9388 15.0632 60.0566 15.491 59.7626C15.3484 60.9388 15.0632 62.409 15.7763 62.703C16.3468 56.9692 17.4877 50.6472 20.0549 44.4723C21.9089 39.9146 24.6187 35.357 27.899 31.6814C28.1842 32.1225 27.7564 33.1516 27.899 33.5927C30.7514 30.5052 32.6055 26.8297 35.7431 24.7714C35.8857 25.5065 34.4595 26.0946 34.4595 26.6827C35.7431 25.3595 36.171 25.8005 37.5972 25.3595C38.025 24.7714 37.0267 25.3595 36.8841 24.7714C37.7398 24.1833 38.3103 23.4482 38.8807 23.0071C38.8807 23.1542 38.7381 23.1542 38.7381 23.3012C40.3069 22.8601 40.4496 21.978 41.5905 21.6839C41.4479 21.5369 41.1627 21.3899 40.7348 21.5369C41.02 21.3899 41.4479 21.0958 41.8758 20.9488C41.7331 20.9488 41.7331 21.0958 41.5905 21.0958C42.4462 20.6548 41.7332 21.2429 41.7332 21.5369C41.8758 21.5369 42.0184 21.3899 42.0184 21.3899C41.1627 21.978 40.5922 22.272 40.3069 23.3012C40.7348 23.0071 40.8774 23.3012 41.4479 22.8601C42.0184 22.5661 41.3053 22.125 41.7332 21.831C42.161 22.125 42.7315 21.978 43.1594 21.978C43.1594 21.6839 43.302 21.3899 43.5872 21.2429C43.7298 20.9488 43.5872 20.8018 43.4446 20.8018C43.5872 20.6548 43.7298 20.6548 44.0151 20.5078C44.0151 20.5078 44.1577 20.5078 44.1577 20.6548C46.5822 19.4786 49.292 18.4495 51.8592 17.5673C53.428 17.4203 55.4247 17.4203 56.2804 16.3912C55.9952 16.3912 55.7099 16.5382 55.5673 16.3912C55.7099 16.3912 55.9952 16.2441 56.1378 16.2441C56.423 16.5382 56.8509 16.2441 56.423 16.8322C56.5657 16.8322 56.5657 16.8322 56.7083 16.6852C56.7083 16.8322 56.7083 16.8322 56.8509 16.9792C56.9935 16.9792 57.1361 16.8322 57.2787 16.5382C57.4214 16.5382 57.564 16.5382 57.7066 16.3912L57.564 16.5382C58.705 16.2441 59.7033 16.3911 61.2721 16.0971V15.656C61.5574 15.656 61.7 15.509 61.9852 15.509V15.656C62.5557 15.362 63.1262 15.9501 63.1262 15.656H63.4114C63.4114 15.9501 63.2688 16.0971 63.2688 16.2441C63.9819 16.2441 64.4098 16.2441 64.695 15.8031C64.5524 15.656 64.4098 15.656 64.2671 15.656C64.5524 15.656 64.8376 15.509 65.1229 15.362C65.5507 15.509 65.6933 15.656 65.6933 16.2441C66.4064 14.9209 68.6884 16.5382 69.6867 16.2441C70.1146 16.2441 69.972 15.656 70.2572 15.362H70.6851C71.3982 15.9501 72.3965 16.5382 73.6801 16.6852C72.5391 16.3912 73.8227 16.2441 73.9653 16.0971C73.6801 16.0971 73.6801 15.9501 73.6801 15.8031C74.1079 15.8031 74.5358 15.9501 74.9637 15.9501C74.9637 16.2441 75.1063 16.3912 75.3915 16.3912C75.6768 16.3912 75.6768 16.2441 75.6768 15.9501C76.1046 15.9501 76.3899 15.9501 76.8177 16.0971C76.6751 16.6852 77.5308 16.8322 77.8161 17.2733C76.6751 16.9792 75.3915 16.5382 74.9637 17.2733C79.5275 18.3024 84.5192 19.7727 89.3683 22.272V22.419H89.5109L92.0781 23.7422C92.6486 24.0363 93.0764 24.3303 93.6469 24.7714C93.6469 24.9184 93.6469 25.0654 93.9321 25.0654H94.0748C94.6452 25.5065 95.2157 25.8005 95.7862 26.2416C96.3567 27.1237 96.9272 28.2999 97.9255 28.0059C100.065 31.3874 102.347 32.7106 104.201 36.2391C104.343 35.651 104.771 37.5623 105.484 37.7093C104.343 37.5623 106.197 38.4444 105.057 38.2974C106.055 39.3266 106.34 39.7676 106.483 40.9438C106.197 40.3557 106.055 40.2087 105.912 40.7968C105.77 41.6789 106.911 40.6497 107.338 41.5319C106.483 41.5319 106.768 42.12 106.911 42.8551C107.338 42.414 107.196 41.9729 107.624 42.12C108.194 42.7081 107.338 42.8551 107.481 43.2961C107.909 42.7081 108.052 43.0021 108.622 43.2961C107.909 43.4432 109.05 44.4723 108.194 44.0313C108.765 44.7664 108.907 45.2074 108.622 45.9425C108.052 45.0604 108.479 44.4723 107.624 44.6193C109.335 46.0896 108.479 49.4711 110.476 49.7651C109.193 50.0591 110.476 50.6472 109.763 50.7943C110.619 51.0883 110.191 52.2645 111.189 52.5585C111.047 53.2936 110.761 53.7347 110.619 54.4698C111.047 55.0579 111.189 56.2341 111.902 56.3811C111.474 56.8222 111.76 57.9983 111.332 58.4394C111.902 58.1453 112.188 58.1453 112.615 58.7334C111.902 59.3215 112.473 59.9096 112.045 60.0566C113.328 63.4381 111.76 70.3482 112.473 72.9946C111.617 72.5535 111.902 74.0237 111.332 74.0237C112.33 74.4648 111.474 75.1999 111.902 75.935C109.906 77.1112 111.902 80.3456 109.193 81.0808C109.478 83.1391 108.337 84.0212 107.481 86.2265C107.338 86.0795 107.338 85.9325 107.196 85.7854C107.053 86.8146 106.483 86.9616 106.768 87.8438L106.197 87.5497C106.197 89.167 103.773 90.0491 103.202 92.5485C103.06 93.2836 100.921 95.1949 100.35 96.224C100.065 96.6651 100.207 97.4002 99.9222 96.371C99.7796 96.5181 99.4943 96.5181 99.3517 96.5181C99.2091 97.5472 98.3534 97.8413 98.0681 99.1644C97.7829 99.3115 97.355 98.8704 97.0698 99.3115C97.0698 99.6055 97.355 100.047 97.2124 100.341C99.7796 100.194 99.7796 97.1061 101.776 96.077C101.634 96.518 100.778 96.9591 101.348 97.2532C101.776 97.2532 103.06 95.7829 102.347 95.93C102.775 96.224 101.919 96.5181 101.776 96.371C102.489 95.7829 102.204 95.0478 102.775 94.9008C103.202 95.1949 102.347 95.93 103.202 95.7829C103.773 94.4597 104.486 94.3127 105.342 93.5776C104.771 94.1657 106.055 94.3127 105.484 94.9008C103.345 95.3419 104.058 97.8412 101.919 98.1353C101.348 98.5764 101.776 98.7234 101.634 99.1644C100.921 98.7234 99.3517 101.223 99.9222 101.076C99.2091 101.811 98.7812 101.517 98.2108 101.664C98.0681 102.252 98.7812 101.811 98.496 102.252C97.4977 101.811 96.2141 103.281 95.3584 104.31L94.9305 103.869C94.5026 105.045 93.3617 105.192 92.0781 106.074C93.5043 106.81 95.9288 103.722 96.6419 104.163C96.7845 104.163 97.9255 102.987 98.3534 102.546C100.207 101.076 102.489 99.8995 103.345 98.2823C103.202 98.5764 102.347 98.5764 102.775 98.1353C103.202 97.9883 103.63 98.2823 104.058 98.2823C106.34 95.0478 109.193 92.4014 111.332 88.5789C111.474 88.4318 111.617 88.1378 111.76 87.8438C111.474 88.7259 111.047 89.461 110.761 90.3431C108.479 91.9604 107.624 96.6651 104.914 97.4002C105.057 99.0174 103.63 99.4585 102.917 101.37C102.489 101.958 102.204 100.929 101.776 101.664C102.204 103.722 98.2108 103.575 98.3534 105.486C98.0681 105.633 97.6403 105.78 97.355 106.074H97.2124L96.9272 106.369C96.2141 106.81 95.6436 107.251 95.0731 107.692C93.0764 108.868 90.3666 109.75 88.2273 110.926V110.779C87.6569 111.073 86.9438 110.926 87.0864 111.514L85.8028 112.396H85.5176C85.5176 112.396 85.3749 112.249 85.2323 112.249C84.9471 112.249 84.9471 112.249 84.8045 112.396C82.9504 112.543 80.5258 113.426 79.8127 114.014C79.0996 113.573 75.8194 114.308 75.2489 114.602C75.5341 115.043 76.3899 114.602 77.103 114.602C76.6751 114.749 76.2472 114.896 76.1046 115.19H75.8194C75.6768 114.749 75.2489 115.19 75.1063 115.043H75.2489C75.1063 114.455 74.6784 114.161 73.9653 114.308C73.9653 114.602 73.9653 114.749 73.8227 115.043C74.1079 115.043 74.9637 114.602 74.9637 115.043C74.821 115.043 74.821 115.19 74.9637 115.19C74.6784 115.484 74.2506 115.484 73.9653 115.631H72.1113C71.9686 115.484 71.826 115.484 71.5408 115.337C71.3982 115.484 71.1129 115.484 70.9703 115.631C70.1146 115.631 69.1162 115.778 68.4031 115.925C68.4031 115.631 68.4031 115.337 68.1179 115.337C67.69 115.925 66.8343 115.19 65.836 115.484C64.8376 115.19 66.4064 115.925 67.8326 116.219C67.69 116.366 67.5474 116.513 67.1195 116.66ZM47.1527 118.718C45.156 116.807 41.02 115.925 40.3069 114.455C39.166 114.308 37.4545 112.102 36.0283 111.808C36.7414 111.808 36.171 111.367 36.0283 111.073C35.7431 111.367 35.4579 111.514 35.1726 111.514C35.1726 110.338 34.0317 109.603 33.0333 108.868C33.7464 109.309 34.3169 109.603 35.1726 109.75C35.1726 109.456 35.1726 109.162 35.4579 109.162C36.4562 110.191 37.5972 111.22 38.8807 112.249C40.5922 113.867 49.4346 117.983 51.0035 118.718C51.0035 118.718 50.7182 119.306 50.8608 119.306C51.5739 119.747 52.1444 118.865 52.287 119.895C50.0051 120.189 49.1494 118.571 47.1527 118.718ZM112.901 84.6093V84.7563C112.758 84.7563 112.901 84.6093 112.901 84.6093ZM55.2821 16.5382C55.1395 16.6852 54.9968 16.6852 54.9968 16.6852C54.9968 16.5382 55.1395 16.5382 55.2821 16.5382ZM43.1594 20.3607C43.302 20.2137 43.302 20.2137 43.4446 20.2137C43.302 20.2137 43.1594 20.3607 43.1594 20.3607ZM65.9786 15.509C65.6933 15.509 65.5507 15.509 65.4081 15.362H65.9786V15.509ZM68.5457 15.8031C68.4031 15.656 67.9753 15.509 67.5474 15.509C67.5474 15.362 67.69 15.215 67.69 15.215H68.1179C68.1179 15.215 68.2605 15.215 68.2605 15.362V15.215H68.5457C68.6884 15.509 68.831 15.656 68.5457 15.8031ZM73.2522 16.2441C72.5391 16.3911 72.1113 16.0971 71.3982 15.656C71.826 15.656 72.3965 15.8031 72.8244 15.9501C72.967 15.9501 73.1096 16.0971 73.2522 16.2441ZM124.025 37.1212C123.74 37.2683 123.597 37.2682 123.312 36.6802C121.03 31.6814 116.894 24.4773 110.904 18.4495C105.057 12.2745 97.2124 7.2758 90.0814 4.6294C90.5093 4.77643 91.0797 5.07047 90.7945 5.36451C84.5192 2.86514 78.5292 1.39492 72.8244 0.806836C57.4214 -1.69254 41.3053 1.68897 28.8973 9.92219C29.04 10.2162 29.04 10.3633 28.6121 10.6573C24.0482 13.5977 17.6303 18.7435 12.496 25.5065C7.36168 32.2695 3.36832 40.7968 1.65687 48.4419C1.79949 48.0008 1.94211 47.2657 2.22735 47.5598C-1.48077 62.703 -0.482431 75.6409 4.6519 86.8146C4.93714 86.5206 3.9388 85.0503 4.79452 85.1974C5.365 86.8146 6.0781 88.5789 6.93382 90.1961C7.93216 92.5485 9.07312 95.6359 10.6419 96.371C6.64858 88.2848 3.9388 79.0224 3.65356 70.7892C4.22404 71.9654 4.08142 74.4648 4.93714 75.4939C5.22238 69.9071 3.9388 62.409 5.79286 57.1162C5.365 59.9096 5.07976 63.7322 5.365 67.5547C5.365 70.3482 6.64858 78.1403 7.5043 78.8754C7.36168 78.7284 7.36168 77.9933 7.5043 77.9933C7.93216 78.8754 6.93382 79.3165 7.64692 79.4635C7.64692 79.1695 7.78954 79.1695 7.93216 79.1695C9.35836 82.404 11.2124 87.4027 12.6386 89.9021C14.3501 93.1365 16.632 96.077 19.1992 98.7234C19.1992 98.8704 19.3418 98.8704 19.3418 99.0174C19.627 99.7525 20.6254 100.635 20.9106 101.223C21.0532 101.517 20.768 101.958 20.9106 102.252C23.0499 106.369 26.1875 110.485 30.0383 113.72C32.4628 116.66 36.3136 119.747 41.02 122.394C45.5839 124.893 50.8608 126.952 55.7099 128.128C59.1328 129.01 63.2688 129.157 65.836 129.745C69.2588 130.48 75.2489 129.451 78.2439 128.863C96.2141 126.069 114.042 113.426 123.027 95.1949C132.297 76.8171 132.012 54.3228 124.025 37.1212Z" fill="#14CAD6"/>
</g>
<defs>
<clipPath id="clip0_169_17">
<rect width="130" height="130" fill="white"/>
</clipPath>
</defs>
</svg>
