<svg width="30" height="30" viewBox="0 0 30 30" fill="none" xmlns="http://www.w3.org/2000/svg">
<path d="M11.25 26.25H18.75M22.5 12.1875V14.0625C22.5 18.1875 19.125 21.5625 15 21.5625M15 21.5625C10.875 21.5625 7.5 18.1875 7.5 14.0625V12.1875M15 21.5625V26.25" stroke="white" stroke-width="2" stroke-linecap="round" stroke-linejoin="round"/>
<path d="M15 3.74999C14.5069 3.7475 14.0181 3.8428 13.562 4.03038C13.106 4.21795 12.6916 4.49408 12.3429 4.8428C11.9941 5.19151 11.718 5.6059 11.5304 6.06199C11.3429 6.51808 11.2476 7.00683 11.25 7.49999V14.0039C11.25 16.0664 12.9493 17.8125 15 17.8125C17.0508 17.8125 18.75 16.1133 18.75 14.0039V7.49999C18.75 5.39061 17.1094 3.74999 15 3.74999Z" stroke="white" stroke-width="2" stroke-linecap="round" stroke-linejoin="round"/>
</svg>
